<?xml version="1.0" standalone="no"?>
<!DOCTYPE svg PUBLIC "-//W3C//DTD SVG 20010904//EN"
 "http://www.w3.org/TR/2001/REC-SVG-20010904/DTD/svg10.dtd">
<svg version="1.0" xmlns="http://www.w3.org/2000/svg"
 width="600.000000pt" height="500.000000pt" viewBox="0 0 600.000000 500.000000"
 preserveAspectRatio="xMidYMid meet">

<g transform="translate(0.000000,500.000000) scale(0.100000,-0.100000)"
fill="#000000" stroke="none">
<path d="M1579 4826 c-3 -3 -35 -10 -72 -16 -80 -12 -156 -36 -178 -56 -8 -8
-25 -14 -36 -14 -25 0 -77 -25 -93 -45 -7 -8 -18 -15 -25 -15 -6 0 -20 -9 -30
-20 -10 -11 -23 -20 -30 -20 -16 0 -245 -228 -245 -245 0 -7 -7 -18 -15 -25
-26 -22 -102 -192 -119 -270 -10 -41 -21 -84 -26 -95 -21 -48 -23 -213 -23
-1470 0 -1232 3 -1453 22 -1480 4 -5 16 -46 27 -90 10 -44 31 -104 46 -134 16
-29 28 -59 28 -67 0 -8 5 -14 10 -14 6 0 10 -9 10 -20 0 -11 4 -20 8 -20 5 0
15 -12 22 -27 20 -41 219 -241 258 -260 17 -8 32 -19 32 -24 0 -5 5 -9 12 -9
6 0 19 -6 27 -14 27 -24 91 -56 111 -56 10 0 22 -5 25 -10 3 -5 19 -10 36 -10
16 0 29 -4 29 -10 0 -5 13 -10 29 -10 17 0 33 -4 36 -10 3 -5 21 -10 40 -10
19 0 36 -4 39 -9 13 -21 238 -25 1456 -24 1227 0 1412 3 1452 24 9 5 30 9 47
9 16 0 33 5 36 10 3 6 17 10 30 10 13 0 27 4 30 10 3 5 19 10 35 10 16 0 32 5
35 10 3 6 16 10 28 11 22 0 29 4 131 72 31 20 59 37 63 37 14 0 216 208 236
242 11 21 24 38 29 38 4 0 8 6 8 13 0 6 17 48 39 92 40 82 52 120 70 215 5 30
17 91 25 135 21 114 22 2624 1 2725 -7 36 -19 98 -26 138 -7 40 -16 75 -21 78
-4 3 -8 20 -8 39 0 19 -4 37 -10 40 -5 3 -10 15 -10 26 0 10 -4 19 -10 19 -5
0 -10 9 -10 20 0 11 -4 20 -10 20 -5 0 -10 6 -10 13 0 20 -28 73 -45 87 -8 7
-15 18 -15 24 0 14 -232 246 -246 246 -6 0 -19 9 -29 20 -10 11 -24 20 -30 20
-7 0 -18 7 -25 15 -17 21 -69 45 -96 45 -13 0 -26 5 -29 10 -11 18 -71 38
-178 59 -103 21 -127 21 -1499 21 -767 0 -1397 -2 -1399 -4z m416 -830 c30
-13 76 -45 103 -70 143 -134 144 -367 2 -500 -58 -54 -107 -80 -184 -96 -160
-33 -324 48 -398 197 -28 58 -32 75 -32 147 0 66 5 92 26 137 46 101 133 176
237 206 68 19 179 10 246 -21z m1925 -900 c183 -50 348 -184 427 -346 24 -47
53 -125 65 -175 23 -89 23 -94 23 -790 l0 -700 -307 -3 -308 -2 0 553 c0 329
-4 587 -11 637 -25 206 -125 305 -304 304 -161 -1 -278 -89 -339 -259 -7 -20
-12 -235 -16 -630 l-5 -600 -310 0 -310 0 0 985 0 985 298 3 297 2 0 -137 0
-138 21 35 c75 126 254 244 434 286 74 17 266 11 345 -10z m-1760 -1026 l0
-990 -310 0 -310 0 0 990 0 990 310 0 310 0 0 -990z"/>
</g>
</svg>
