<?xml version="1.0" standalone="no"?>
<!DOCTYPE svg PUBLIC "-//W3C//DTD SVG 20010904//EN"
 "http://www.w3.org/TR/2001/REC-SVG-20010904/DTD/svg10.dtd">
<svg version="1.0" xmlns="http://www.w3.org/2000/svg"
 width="1024.000000pt" height="1306.000000pt" viewBox="0 0 1024.000000 1306.000000"
 preserveAspectRatio="xMidYMid meet">

<g transform="translate(0.000000,1306.000000) scale(0.100000,-0.100000)"
fill="#000000" stroke="none">
<path d="M3990 13039 c-1085 -38 -2107 -157 -3095 -359 -181 -37 -547 -121
-651 -149 l-40 -11 -17 -127 c-252 -1928 -245 -3833 19 -5513 231 -1469 742
-2825 1501 -3980 878 -1336 2027 -2329 3304 -2855 l108 -45 158 66 c1209 501
2364 1497 3212 2774 811 1220 1330 2613 1561 4187 124 849 180 1648 180 2578
0 741 -34 1391 -110 2150 -28 270 -79 703 -89 740 -9 37 3 34 -471 114 -1482
251 -2768 387 -4090 431 -334 11 -1157 11 -1480 -1z m1770 -68 c1032 -52 1906
-137 2915 -282 336 -48 1208 -191 1270 -207 29 -8 30 -11 42 -93 48 -329 119
-1083 148 -1559 48 -801 48 -1673 0 -2420 -54 -833 -165 -1645 -311 -2277
-337 -1467 -967 -2797 -1839 -3883 -205 -255 -350 -416 -594 -661 -485 -484
-964 -853 -1511 -1162 -246 -139 -711 -357 -761 -357 -61 0 -626 275 -890 433
-1796 1076 -3169 3047 -3764 5402 -135 536 -227 1069 -299 1735 -140 1287
-140 2607 -1 4030 26 257 81 747 90 786 4 17 27 26 162 58 1091 261 2286 417
3568 466 281 11 1506 4 1775 -9z"/>
<path d="M4135 12520 c-1141 -39 -2190 -170 -3165 -396 -293 -67 -310 -72
-310 -87 0 -7 -5 -43 -11 -82 -37 -258 -97 -859 -124 -1240 -56 -805 -59
-1676 -9 -2410 42 -622 121 -1251 219 -1740 450 -2246 1650 -4152 3300 -5241
297 -196 660 -389 947 -504 l106 -43 119 48 c708 289 1423 785 2028 1407 996
1023 1718 2356 2099 3875 170 680 274 1421 337 2413 17 266 23 1228 10 1555
-23 583 -66 1119 -136 1705 -35 288 -29 267 -73 280 -20 6 -221 42 -447 80
-1199 202 -2279 320 -3390 370 -320 14 -1199 20 -1500 10z m-2335 -395 c7 -8
27 -15 44 -15 49 0 106 -19 106 -35 0 -8 -9 -15 -21 -15 -11 0 -30 -5 -42 -12
-12 -7 -32 -11 -44 -9 -22 2 -23 2 -6 -27 9 -16 24 -29 32 -28 9 1 16 -6 16
-14 0 -8 8 -18 18 -22 21 -9 22 -27 2 -34 -8 -4 -15 -10 -15 -16 0 -5 5 -6 10
-3 17 10 33 -5 20 -20 -8 -9 -6 -21 7 -44 22 -37 10 -64 -29 -69 -22 -3 -25 0
-21 22 l5 26 -96 0 c-98 0 -114 -8 -84 -38 9 -9 5 -12 -20 -12 -25 0 -35 6
-44 25 -10 22 -8 29 13 51 16 18 20 28 12 31 -7 3 -13 12 -13 20 0 9 6 13 15
10 8 -4 17 -2 20 2 2 5 -5 11 -16 14 -27 7 -20 30 12 37 16 4 20 8 11 14 -16
10 -4 29 14 22 8 -3 19 7 28 26 l16 31 -41 -7 c-36 -6 -41 -4 -35 10 5 14 1
16 -32 10 -38 -6 -39 -5 -40 25 -1 25 2 29 16 23 19 -8 28 -8 96 -6 27 1 47 5
43 8 -6 6 13 33 24 34 4 0 12 -7 19 -15z m-258 -130 c11 -4 26 -23 34 -42 13
-31 13 -38 -1 -59 -18 -28 -56 -32 -79 -8 -26 26 -13 72 18 61 21 -8 21 -37
-1 -37 -13 0 -14 -3 -6 -11 17 -17 43 -3 43 24 0 13 -9 32 -20 42 -18 16 -20
16 -35 1 -9 -9 -24 -16 -33 -16 -11 0 -13 -3 -6 -8 13 -8 6 -74 -7 -66 -17 10
-9 -3 17 -27 25 -23 26 -23 15 -2 -22 42 -13 57 15 24 14 -17 30 -29 34 -26 5
3 22 -3 38 -12 30 -17 60 -11 33 6 -16 10 -6 31 15 31 17 0 18 -9 4 -44 -8
-22 -14 -25 -42 -20 -23 4 -29 3 -19 -4 9 -7 10 -12 2 -16 -19 -12 -102 33
-168 90 -62 55 -76 77 -35 55 15 -8 21 -7 25 4 4 9 1 12 -8 9 -8 -3 -22 -1
-32 5 -17 10 -17 10 0 11 9 0 17 5 17 10 0 13 37 13 45 0 3 -5 0 -20 -6 -32
-11 -20 -11 -22 3 -10 13 10 17 10 21 0 2 -7 7 10 11 38 6 44 10 51 26 47 10
-3 27 0 37 5 13 8 19 7 21 -3 2 -8 12 -17 24 -20z m573 19 c15 4 23 1 22 -7
-1 -37 6 -99 10 -84 2 9 9 17 14 17 5 0 8 3 8 8 -4 21 3 32 19 28 27 -5 68
-25 54 -25 -7 -1 -11 -5 -8 -10 7 -10 -86 -99 -134 -128 -41 -24 -90 -37 -90
-24 0 5 6 12 13 15 6 3 -4 4 -24 1 -31 -5 -37 -2 -47 20 -16 35 -15 41 8 42
22 2 28 -23 8 -30 -7 -2 -10 -8 -6 -12 5 -5 20 -2 35 5 16 8 33 14 40 15 6 0
23 11 37 24 19 18 26 20 26 10 0 -19 -19 -43 -45 -57 -11 -6 -14 -12 -8 -12
16 0 93 69 93 83 0 6 -6 2 -14 -8 -12 -17 -14 -16 -18 18 -2 20 1 38 7 41 5 2
-2 7 -17 11 -16 4 -25 11 -22 16 9 15 -19 10 -38 -8 -10 -9 -18 -27 -18 -40 0
-27 26 -41 43 -24 8 8 6 11 -7 11 -11 0 -16 6 -14 18 5 26 42 22 46 -6 5 -31
-15 -52 -47 -52 -36 0 -51 17 -51 57 0 32 28 73 50 73 6 0 10 7 10 15 0 13 4
14 21 5 11 -7 31 -9 44 -6z m-888 -93 c22 -11 60 -24 84 -27 35 -6 107 -50
176 -108 4 -4 -112 11 -132 17 -11 3 -33 8 -49 12 -23 5 -26 9 -16 15 11 7 3
11 -28 16 -23 3 -39 10 -36 15 11 18 -23 8 -41 -11 -10 -12 -31 -20 -48 -20
-29 0 -30 0 -12 20 10 11 28 21 39 21 17 1 18 2 4 6 -10 2 -18 9 -18 14 0 5
-4 9 -10 9 -5 0 -7 -7 -4 -15 7 -18 0 -19 -26 -5 -21 11 -17 40 6 40 8 0 20
11 26 25 10 22 13 23 27 11 9 -7 35 -23 58 -35z m1204 30 c6 11 9 8 9 -8 0
-13 6 -23 14 -23 23 0 27 -29 6 -40 -26 -14 -33 -13 -26 5 3 8 1 15 -4 15 -6
0 -10 -4 -10 -10 0 -5 -8 -10 -17 -11 -10 0 -3 -5 16 -12 19 -7 36 -18 39 -24
6 -20 -40 -15 -68 7 -25 20 -56 27 -46 11 3 -5 -13 -12 -36 -15 -31 -5 -39 -9
-28 -16 18 -11 10 -14 -85 -30 -38 -6 -82 -15 -97 -20 -39 -12 -35 -4 15 26
23 15 55 38 70 52 18 17 49 31 90 39 35 7 79 25 102 41 31 22 41 25 44 14 2
-13 4 -13 12 -1z m-1174 -125 c-4 -9 2 -16 16 -19 12 -3 50 -11 84 -18 59 -12
62 -14 58 -38 -3 -15 -2 -19 1 -11 10 23 34 39 50 33 20 -8 18 -43 -3 -44 -35
-1 20 -18 61 -18 28 -1 37 3 33 12 -3 8 -1 20 4 28 6 10 9 10 9 2 0 -7 5 -13
10 -13 6 0 10 8 10 18 0 30 13 34 27 10 7 -13 12 -17 13 -10 0 10 5 10 22 -2
12 -9 35 -16 51 -16 18 0 39 -10 56 -28 l28 -27 25 27 c18 20 35 28 59 28 18
0 41 7 51 17 14 13 18 13 18 2 0 -8 8 -4 20 11 l20 25 0 -28 c0 -24 3 -27 21
-22 19 6 21 4 16 -14 -5 -19 -1 -21 36 -21 49 0 78 13 53 23 -19 8 -21 34 -3
40 23 7 46 -5 56 -32 11 -26 11 -26 6 5 -6 29 -4 30 42 41 26 7 63 15 81 18
23 5 32 11 28 21 -4 10 4 14 29 14 26 0 35 -5 41 -22 4 -13 2 -24 -4 -26 -7
-2 -8 -11 -2 -27 12 -33 0 -39 -27 -13 l-23 21 0 -21 c0 -24 -11 -27 -38 -13
-15 8 -18 5 -17 -25 1 -28 -1 -34 -14 -28 -9 4 -23 7 -33 8 -9 1 -23 8 -31 15
-13 10 -15 9 -9 -11 5 -21 4 -22 -12 -9 -14 12 -27 12 -81 2 -59 -12 -69 -11
-127 9 -71 24 -121 21 -141 -10 -15 -26 -59 -26 -81 -1 -28 31 -63 34 -142 10
-63 -19 -80 -20 -113 -11 -49 15 -84 15 -99 0 -7 -7 -12 -8 -12 -2 0 5 5 15
12 22 7 7 8 12 2 12 -5 0 -15 -5 -22 -12 -6 -6 -20 -13 -29 -14 -10 -1 -25 -4
-34 -8 -13 -6 -15 0 -14 28 1 30 -2 33 -17 25 -25 -13 -38 -11 -38 6 0 13 -4
13 -26 -2 l-27 -17 5 32 c2 17 1 33 -4 34 -4 2 -5 13 -2 26 5 17 13 22 41 22
26 0 34 -4 30 -14z m-85 -28 c2 -13 2 -42 0 -65 -3 -33 -7 -40 -20 -36 -13 5
-14 0 -9 -33 7 -41 53 -94 82 -94 8 0 15 -4 15 -10 0 -5 -5 -10 -11 -10 -5 0
-8 -4 -4 -10 4 -6 15 -6 31 0 32 13 37 12 29 0 -4 -6 7 -24 24 -41 30 -30 45
-62 19 -41 -7 5 -37 16 -65 25 -45 12 -53 13 -53 1 0 -8 -4 -14 -10 -14 -5 0
-10 -26 -10 -57 0 -64 -7 -65 -21 -1 -6 24 -28 79 -51 123 -33 65 -41 91 -41
135 0 61 20 110 55 134 30 21 35 20 40 -6z m1276 -3 c35 -29 58 -106 47 -157
-4 -18 -25 -68 -46 -110 -21 -42 -41 -95 -45 -117 -10 -60 -26 -50 -22 13 2
38 0 52 -9 49 -7 -3 -9 -17 -6 -40 5 -26 3 -34 -6 -29 -7 5 -13 -3 -17 -23 -4
-16 -12 -32 -20 -35 -8 -3 -14 -12 -14 -20 0 -9 -6 -13 -14 -10 -15 6 -56 -40
-56 -64 0 -36 -15 3 -15 41 -1 31 4 46 18 56 18 13 18 15 2 23 -15 9 -15 11 5
25 17 12 19 18 9 23 -8 6 6 17 44 36 31 16 57 31 57 35 0 8 -78 -14 -109 -31
-30 -16 -26 2 9 35 17 16 28 35 26 42 -6 15 -4 16 27 4 29 -11 42 -4 26 16 -9
10 -8 13 5 13 30 0 76 53 83 94 5 33 4 38 -9 33 -13 -4 -17 3 -20 36 -2 23 -1
43 3 45 4 2 5 12 2 22 -7 27 10 25 45 -5z m-578 -10 c0 -13 -14 -15 -82 -13
-54 2 -83 7 -86 16 -3 9 18 12 82 12 71 0 86 -3 86 -15z m-642 -67 c-1 -7 6
-26 17 -41 14 -21 15 -31 6 -36 -7 -5 -9 -15 -5 -26 6 -15 4 -17 -11 -11 -11
4 -21 2 -26 -5 -5 -8 -14 -1 -28 22 -23 38 -26 49 -11 49 6 0 10 11 10 24 0
22 10 30 43 35 4 0 7 -5 5 -11z m1153 2 c5 0 9 -11 9 -25 0 -14 5 -25 11 -25
15 0 1 -41 -22 -65 -13 -13 -19 -15 -19 -6 0 8 -6 11 -16 7 -13 -5 -15 -1 -12
18 4 17 1 23 -9 19 -16 -6 -8 23 14 49 8 9 12 22 7 29 -5 9 -2 10 10 6 10 -4
22 -7 27 -7z m2229 -40 l0 -40 -50 0 -50 0 0 -120 0 -120 -45 0 -45 0 0 120 0
120 -49 0 c-48 0 -49 0 -53 35 l-4 34 86 4 c47 1 113 4 148 5 l62 2 0 -40z
m262 -119 c37 -85 68 -155 68 -157 0 -2 -20 -4 -46 -4 -41 0 -46 3 -55 30 -11
29 -13 30 -75 30 -60 0 -64 -1 -79 -30 -14 -26 -21 -30 -59 -30 l-44 0 64 150
c35 83 66 155 70 161 3 6 24 9 47 7 l41 -3 68 -154z m313 145 c73 -31 84 -122
20 -173 l-33 -27 44 -50 44 -51 -47 -3 c-47 -4 -49 -2 -99 52 -28 31 -54 56
-58 56 -3 0 -6 -25 -6 -55 l0 -55 -45 0 -45 0 0 160 0 160 95 0 c60 0 108 -5
130 -14z m193 -1 c1 -1 0 -70 -4 -154 l-7 -151 -39 0 -38 0 0 161 0 161 43 -7
c23 -4 43 -8 45 -10z m-1088 -30 l0 -35 -85 0 -85 0 0 -31 0 -30 78 3 77 3 3
-32 3 -33 -80 0 -81 0 0 -31 0 -32 85 6 85 6 0 -39 0 -40 -123 0 -124 0 -6
107 c-4 58 -7 130 -7 160 l0 53 130 0 130 0 0 -35z m1396 -120 c35 -82 63
-153 63 -157 1 -5 -19 -8 -43 -8 -39 0 -45 3 -56 30 -12 29 -15 30 -76 30 -59
0 -65 -2 -76 -25 -9 -21 -18 -25 -55 -25 -23 0 -43 3 -43 7 0 3 30 73 67 155
l68 149 44 -3 45 -3 62 -150z m301 129 c90 -32 125 -126 82 -211 -36 -69 -76
-86 -196 -84 -53 0 -97 2 -99 4 -1 1 0 72 3 157 l6 155 81 -3 c44 -2 100 -10
123 -18z m-2047 -1 c55 -32 66 -102 24 -152 -14 -17 -33 -31 -42 -31 -10 0 3
-19 37 -54 l53 -54 -51 -3 c-51 -4 -53 -3 -103 49 -29 28 -56 52 -60 52 -5 0
-5 -25 -2 -55 l7 -55 -47 0 -46 0 0 73 c0 39 -3 109 -6 153 -8 96 -15 91 119
93 67 1 96 -3 117 -16z m-351 -12 c38 -20 71 -59 71 -84 0 -9 -17 -19 -39 -24
-36 -10 -40 -9 -50 14 -25 54 -117 49 -146 -7 -21 -41 -19 -64 11 -99 21 -25
33 -31 65 -31 41 0 79 27 79 56 0 13 7 15 43 9 23 -4 43 -9 45 -10 2 -2 -3
-18 -11 -37 -39 -93 -160 -125 -255 -68 -88 54 -98 184 -20 257 50 47 141 57
207 24z m2790 -2 c56 -31 81 -75 81 -141 0 -69 -27 -114 -90 -146 -79 -41
-183 -13 -229 62 -28 45 -28 130 -1 170 47 73 161 99 239 55z m-3089 -34 l0
-35 -69 0 c-86 0 -101 -6 -101 -37 l0 -25 80 7 80 7 0 -36 0 -36 -52 0 c-78 0
-98 -8 -98 -37 l0 -25 85 7 c68 5 85 4 85 -7 0 -7 3 -23 6 -35 6 -23 0 -24
-198 -36 l-56 -3 -6 110 c-4 61 -9 132 -12 158 l-6 47 49 4 c26 2 85 4 131 5
l82 2 0 -35z m3568 19 c19 -4 23 -10 20 -37 l-3 -32 -79 4 c-58 2 -81 0 -87
-10 -19 -30 -8 -37 72 -43 l80 -7 -3 -32 -3 -32 -77 4 c-77 3 -78 3 -78 -22 0
-22 5 -25 53 -31 28 -3 67 -6 86 -6 32 0 33 -1 27 -32 -3 -17 -8 -33 -10 -35
-2 -3 -59 -1 -126 3 l-122 7 7 151 c4 83 9 154 12 159 4 7 186 0 231 -9z
m-3916 -21 c29 -14 52 -48 44 -62 -3 -5 -20 -11 -37 -15 -23 -4 -38 -1 -56 14
-31 24 -46 25 -68 3 -16 -15 -16 -18 -1 -29 9 -6 41 -15 71 -19 69 -8 105 -39
105 -90 0 -46 -14 -71 -48 -88 -65 -33 -155 -27 -198 14 -35 33 -31 53 16 65
35 10 41 9 53 -9 16 -24 74 -28 87 -7 14 23 -7 38 -63 45 -72 10 -103 28 -116
68 -33 100 98 168 211 110z m-742 -489 c0 -562 0 -557 -65 -588 -18 -9 -82
-22 -141 -30 -120 -16 -158 -27 -190 -57 -20 -19 -21 -19 -38 0 -25 27 -92 47
-205 61 -104 12 -142 27 -168 67 -17 25 -18 70 -21 540 l-3 513 416 0 415 0 0
-506z m4958 487 c11 -7 12 -30 5 -125 -9 -112 -11 -119 -41 -148 -41 -42 -120
-50 -170 -18 -27 17 -71 86 -60 95 2 1 22 5 46 9 37 6 42 4 42 -14 0 -27 36
-45 65 -32 24 11 35 59 35 151 0 72 8 91 39 91 14 0 32 -4 39 -9z m250 -17
c74 -6 77 -9 65 -52 -6 -23 -8 -23 -89 -17 l-84 7 0 -25 c0 -27 27 -37 106
-37 44 0 44 0 44 -36 l0 -36 -80 7 -80 7 0 -25 c0 -27 17 -33 125 -39 38 -3
40 -4 38 -36 0 -18 -3 -35 -5 -36 -1 -1 -59 2 -127 7 l-123 10 6 81 c4 45 9
116 13 159 l6 79 56 -6 c31 -3 89 -8 129 -12z m351 -38 c31 -17 64 -57 75 -92
5 -17 2 -23 -16 -28 -37 -9 -68 -7 -68 6 0 25 -43 58 -76 58 -46 0 -63 -9 -79
-41 -20 -39 -19 -72 5 -102 37 -46 104 -44 138 5 11 15 21 18 45 13 46 -10 51
-19 31 -53 -37 -63 -140 -91 -217 -58 -113 48 -136 192 -45 271 22 19 50 36
62 39 36 8 113 -2 145 -18z m199 -15 c11 -6 12 -26 5 -92 -9 -100 -8 -117 14
-141 19 -21 52 -23 78 -4 14 10 21 37 31 115 7 56 14 105 17 107 3 3 21 2 41
-1 42 -8 41 -8 25 -135 -6 -50 -18 -97 -30 -116 -20 -33 -80 -64 -122 -64 -40
1 -106 38 -127 72 -19 30 -21 43 -15 128 9 130 12 140 44 140 14 0 32 -4 39
-9z m546 -68 c-1 -7 -2 -24 -2 -37 -2 -23 -4 -24 -55 -19 l-53 5 -13 -122 -13
-122 -30 6 c-17 3 -36 6 -42 6 -9 0 -9 26 1 113 7 61 11 118 8 125 -3 7 -23
12 -50 12 -44 0 -45 0 -45 33 0 19 2 36 5 38 2 3 68 -2 147 -11 101 -10 143
-19 142 -27z m86 0 l33 -6 -6 -61 c-3 -34 -11 -103 -18 -153 l-12 -93 -38 0
c-21 0 -40 3 -42 8 -3 4 4 70 14 147 10 77 18 146 19 153 0 14 5 14 50 5z
m-7316 -35 c54 -30 52 -28 37 -37 -10 -7 -8 -12 9 -24 20 -14 20 -16 5 -25
-16 -8 -16 -10 2 -23 10 -8 19 -25 20 -39 1 -14 5 -57 9 -96 6 -65 4 -74 -15
-93 -33 -33 -93 -29 -125 10 -31 37 -33 58 -5 93 34 43 113 27 95 -20 -6 -15
-8 -15 -25 1 -23 20 -49 17 -65 -7 -8 -14 -6 -22 12 -40 16 -17 25 -19 33 -11
7 7 26 9 46 6 18 -3 33 -2 32 3 -1 5 1 26 5 46 5 23 4 42 -3 50 -6 7 -21 25
-32 41 -11 15 -25 25 -30 21 -5 -3 -12 3 -16 13 -4 10 -13 24 -20 31 -7 7 -13
19 -13 27 0 7 -7 15 -15 19 -17 6 -19 29 -5 57 13 24 13 24 64 -3z m7498 -82
c15 -54 29 -100 31 -102 2 -3 28 36 58 86 55 92 59 95 117 84 l30 -6 -89 -147
-90 -146 -39 3 -40 4 -26 87 c-14 47 -36 121 -49 164 l-24 78 47 -3 46 -3 28
-99z m464 28 c93 -44 121 -168 56 -245 -79 -94 -219 -84 -289 20 -47 69 -19
176 56 219 44 26 128 29 177 6z m-4630 -140 c39 -19 74 -72 52 -78 -54 -17
-71 -16 -85 4 -18 25 -68 27 -77 3 -9 -22 0 -28 68 -42 75 -17 106 -45 106
-100 0 -31 -6 -44 -30 -65 -70 -58 -200 -42 -232 30 -14 29 -10 33 36 41 31 5
40 2 53 -16 21 -30 77 -26 81 6 3 19 -4 23 -58 34 -70 14 -106 38 -115 77 -20
92 100 154 201 106z m192 -146 l3 -158 -46 0 -45 0 0 161 0 160 43 -3 42 -3 3
-157z m259 142 c35 -21 60 -58 46 -70 -4 -4 -22 -10 -40 -13 -23 -5 -34 -2
-45 13 -19 27 -53 34 -72 14 -19 -18 -6 -44 23 -44 9 0 33 -5 55 -11 124 -34
111 -175 -18 -194 -80 -12 -181 43 -163 89 10 25 69 24 95 -2 29 -30 76 -27
80 5 3 17 -3 24 -25 29 -121 27 -143 43 -143 108 0 42 22 75 60 89 36 13 116
6 147 -13z m234 10 l129 0 0 -35 0 -35 -49 0 c-46 0 -49 -1 -55 -31 -3 -17 -6
-71 -6 -120 l0 -89 -40 0 -40 0 0 120 0 120 -50 0 -50 0 0 41 c0 33 3 40 16
35 9 -3 74 -6 145 -6z m412 -7 c3 -5 3 -21 0 -38 l-5 -30 -85 4 -85 3 4 -28
c3 -29 3 -29 81 -32 l78 -3 -3 -32 -3 -32 -77 4 -78 3 0 -31 0 -31 85 0 85 0
0 -35 0 -35 -125 0 -125 0 0 160 0 160 124 0 c69 0 127 -3 129 -7z m-3470 -96
c1 -15 7 -18 33 -14 17 3 36 1 41 -4 26 -26 66 28 43 56 -16 20 -39 19 -62 -1
-16 -16 -18 -16 -24 0 -17 44 59 63 96 24 46 -50 4 -128 -70 -128 -61 0 -80
25 -79 103 1 61 1 61 11 22 5 -22 10 -48 11 -58z m1737 58 l0 -35 -69 0 c-86
0 -101 -6 -101 -37 0 -25 1 -25 78 -22 l77 4 3 -31 3 -31 -76 -6 c-43 -3 -79
-7 -81 -9 -2 -2 -1 -14 3 -27 5 -22 10 -22 87 -20 l81 4 0 -35 0 -35 -123 -3
c-93 -2 -123 0 -127 10 -2 7 -5 77 -7 155 l-4 142 40 4 c23 2 80 4 129 5 l87
2 0 -35z m130 -85 l0 -120 80 0 80 0 0 -35 0 -35 -120 0 -120 0 0 73 c0 39 -3
109 -7 155 l-6 82 47 0 46 0 0 -120z m1783 23 l48 -96 55 91 55 92 42 0 42 0
-6 -147 c-4 -82 -7 -151 -8 -155 0 -5 -20 -8 -42 -8 l-42 0 7 73 c8 81 6 80
-50 -20 -23 -42 -34 -53 -54 -53 -22 0 -31 11 -61 72 l-36 73 -7 -68 -8 -67
-40 0 -41 0 6 68 c4 37 7 106 7 155 l0 87 43 0 42 0 48 -97z m-2287 61 c72
-34 105 -133 69 -208 -27 -57 -82 -84 -191 -92 l-91 -7 -6 114 c-4 63 -7 135
-7 162 l0 47 96 0 c68 0 106 -5 130 -16z m2828 -136 c31 -84 56 -156 56 -160
0 -5 -18 -8 -41 -8 -36 0 -41 3 -50 30 -10 28 -15 30 -59 30 -27 0 -55 3 -64
6 -10 4 -20 -5 -31 -25 -13 -27 -21 -31 -55 -31 -22 0 -40 4 -40 9 0 5 31 75
69 155 l70 146 44 0 45 0 56 -152z m463 118 c3 -2 2 -19 -2 -36 l-7 -32 -84 7
-84 7 0 -25 c0 -29 20 -37 98 -37 l52 0 0 -36 0 -36 -74 7 c-71 6 -74 6 -79
-16 -9 -32 7 -39 91 -39 l72 0 0 -37 0 -38 -97 6 c-54 4 -111 7 -127 8 l-28 1
7 153 c4 83 9 154 10 157 4 6 246 -7 252 -14z m-5629 -19 c2 -10 -3 -17 -12
-17 -18 0 -29 16 -21 31 9 14 29 6 33 -14z m1090 0 c2 -12 -3 -17 -17 -17 -12
0 -21 6 -21 13 0 31 32 34 38 4z m4744 12 c44 -11 84 -44 92 -75 6 -18 1 -22
-30 -27 -31 -5 -41 -2 -60 18 -28 30 -59 32 -74 6 -12 -23 -12 -23 57 -45 78
-26 103 -49 103 -97 0 -31 -7 -47 -29 -70 -29 -29 -52 -34 -121 -29 -63 4
-120 48 -120 92 0 29 73 24 104 -7 29 -29 48 -31 71 -9 22 22 7 37 -54 53 -76
19 -101 43 -101 97 0 35 5 50 26 69 36 34 77 41 136 24z m268 -24 c139 -8 140
-9 140 -51 l0 -35 -52 3 -53 3 -9 -118 -9 -118 -41 3 c-31 2 -41 7 -40 20 1 9
5 64 9 122 l7 106 -51 0 -51 0 0 33 c0 39 7 49 29 43 9 -3 63 -7 121 -11z
m386 -190 l51 -160 -34 -3 c-39 -4 -60 10 -65 41 -3 19 -11 23 -67 27 -63 5
-65 4 -80 -23 -15 -25 -20 -27 -56 -21 -22 3 -41 7 -42 8 -3 3 120 236 144
274 12 19 21 23 56 20 l41 -3 52 -160z m342 120 c2 -2 0 -18 -3 -36 -6 -34 -7
-34 -54 -31 -57 4 -55 7 -66 -129 -4 -48 -10 -91 -14 -97 -4 -7 -21 -9 -43 -5
l-37 5 7 67 c4 36 7 91 7 121 l0 55 -45 5 c-27 3 -45 10 -44 18 1 6 2 22 3 35
l1 23 143 -14 c78 -8 143 -16 145 -17z m236 -172 c25 -87 46 -162 46 -166 0
-5 -19 -7 -42 -5 -35 2 -44 7 -46 25 -5 31 -20 39 -83 47 -53 5 -57 4 -67 -19
-10 -21 -18 -25 -58 -25 -56 0 -59 -11 42 167 l75 133 43 0 43 0 47 -157z
m191 93 c-8 -50 -25 -186 -25 -201 0 -9 22 -15 75 -20 l75 -7 0 -33 c0 -17 -2
-34 -5 -37 -5 -5 -227 21 -234 28 -4 3 29 295 34 304 2 3 22 4 45 2 39 -4 40
-5 35 -36z m-3751 -200 c36 -15 76 -53 76 -72 0 -7 -15 -18 -34 -24 -31 -10
-37 -9 -55 9 -21 21 -72 28 -106 15 -19 -8 -45 -55 -45 -83 0 -34 52 -84 88
-84 32 0 82 26 82 43 0 6 -20 10 -45 10 -45 0 -45 0 -45 35 l0 36 88 -3 87 -3
-2 -42 c-4 -86 -59 -144 -148 -151 -63 -5 -122 21 -157 70 -35 49 -33 142 4
190 48 63 136 86 212 54z m2583 6 c9 -6 3 -17 -21 -41 -29 -28 -39 -32 -65
-26 -36 8 -36 8 -14 46 14 23 24 29 53 29 19 0 41 -4 47 -8z m-6000 -13 c7 -7
5 -33 -7 -90 -10 -45 -20 -83 -23 -85 -2 -2 -12 -1 -21 2 -12 5 -16 13 -12 28
4 11 9 51 13 89 5 53 9 67 22 67 10 0 22 -5 28 -11z m927 -51 c3 -35 9 -75 12
-89 4 -19 1 -28 -12 -33 -9 -3 -18 -5 -20 -3 -9 9 -36 158 -31 171 4 9 15 16
25 16 16 0 20 -10 26 -62z m1860 47 c38 -18 75 -73 54 -79 -54 -17 -71 -16
-85 4 -18 26 -59 26 -73 1 -12 -24 -10 -26 64 -41 75 -15 106 -44 106 -98 0
-65 -50 -102 -138 -102 -54 0 -108 28 -121 63 -11 29 -8 34 35 42 30 5 39 3
51 -14 17 -25 65 -28 83 -6 17 20 5 33 -38 40 -66 12 -102 26 -117 48 -18 26
-19 86 -1 109 34 46 120 61 180 33z m356 -20 l0 -34 -82 -3 c-81 -3 -83 -4
-83 -28 0 -24 2 -25 75 -25 l75 0 3 -32 3 -33 -75 0 -76 0 0 -31 0 -32 80 6
80 5 0 -39 0 -39 -119 0 -118 0 -7 31 c-3 17 -6 89 -6 160 l0 129 125 0 125 0
0 -35z m490 -68 c0 -117 12 -142 66 -135 41 4 54 38 54 146 l0 92 40 0 40 0 0
-108 c0 -85 -4 -114 -18 -141 -48 -89 -183 -94 -242 -10 -21 28 -24 47 -28
146 l-5 113 47 0 46 0 0 -103z m497 70 c40 -39 40 -108 1 -142 -15 -13 -32
-25 -40 -27 -8 -3 4 -24 36 -61 l48 -57 -49 0 c-47 0 -51 2 -97 55 -26 30 -51
55 -57 55 -5 0 -9 -25 -9 -56 0 -47 -3 -55 -16 -50 -9 3 -27 6 -40 6 l-24 0 0
156 0 156 110 -4 c104 -3 111 -4 137 -31z m153 -127 l0 -160 -46 0 -47 0 7 53
c3 28 6 100 6 160 l0 107 40 0 40 0 0 -160z m277 124 c54 -40 75 -83 71 -142
-5 -60 -28 -97 -79 -127 -28 -17 -50 -20 -128 -18 -51 1 -94 3 -95 5 0 2 0 72
2 156 l3 154 99 -4 c81 -2 104 -7 127 -24z m-2127 -19 l0 -34 -77 -3 c-78 -3
-78 -3 -81 -32 l-4 -29 76 7 76 7 0 -36 0 -35 -52 0 c-78 0 -98 -8 -98 -38 l0
-25 85 7 85 6 0 -34 c0 -22 -6 -36 -16 -40 -32 -12 -224 -7 -228 7 -3 6 -7 76
-10 154 l-6 142 38 4 c20 2 76 4 125 5 l87 2 0 -35z m2448 -42 c56 -148 87
-242 81 -247 -3 -3 -22 -3 -43 1 -30 5 -40 12 -48 34 -10 28 -13 29 -72 29
-58 0 -63 -2 -77 -27 -13 -25 -18 -28 -55 -23 l-41 5 66 140 c37 77 70 146 74
153 5 6 26 12 47 12 l38 0 30 -77z m319 46 c65 -20 112 -102 99 -172 -18 -95
-72 -127 -212 -127 l-97 0 7 92 c3 50 6 122 6 161 l0 69 83 -7 c45 -3 96 -11
114 -16z m-3123 -12 c54 -30 78 -78 73 -143 -7 -99 -65 -143 -203 -152 l-82
-5 -6 54 c-16 155 -17 252 -4 260 7 5 51 9 98 9 70 0 92 -4 124 -23z m3596
-22 c37 -19 50 -43 50 -94 0 -31 -7 -49 -29 -73 -28 -31 -33 -33 -100 -33
l-71 0 0 -47 c0 -43 -2 -48 -22 -48 -66 1 -64 -5 -54 167 l9 156 94 -6 c52 -4
106 -13 123 -22z m176 -42 c-4 -27 -7 -77 -8 -112 -2 -56 1 -66 21 -82 29 -24
43 -24 71 -1 19 15 24 33 31 103 4 46 8 92 8 102 1 13 10 17 42 17 l41 0 -7
-97 c-11 -162 -48 -213 -152 -213 -52 0 -92 21 -121 61 -14 20 -17 44 -14 138
1 62 5 117 8 122 3 5 23 9 46 9 l40 0 -6 -47z m-4814 -25 c20 -14 33 -38 48
-87 11 -38 20 -71 20 -74 0 -11 -155 64 -167 80 -19 25 -16 43 8 43 15 0 19 5
15 18 -3 9 -8 30 -12 45 l-7 29 34 -17 c19 -10 46 -26 61 -37z m-1102 34 c0
-4 -4 -22 -9 -40 -8 -27 -7 -32 8 -32 57 0 23 -46 -64 -86 -92 -43 -97 -43
-84 -1 33 103 41 117 82 142 42 25 67 31 67 17z m6313 -1 c76 -10 102 -27 112
-73 5 -23 2 -38 -15 -60 -20 -27 -20 -31 -6 -47 25 -28 20 -83 -10 -112 -23
-21 -34 -24 -97 -22 -40 1 -90 4 -112 8 l-41 6 13 137 c6 75 12 145 13 155 0
20 33 22 143 8z m243 -108 c-4 -49 -10 -105 -13 -125 -5 -37 -5 -38 24 -38 17
0 51 -3 77 -6 44 -6 46 -8 46 -40 0 -30 -3 -34 -27 -34 -31 0 -206 19 -209 23
-2 1 4 65 11 142 8 77 15 146 15 153 0 7 15 12 41 12 l42 0 -7 -87z m281 53
c1 -1 -5 -72 -15 -156 l-17 -155 -40 3 c-22 2 -40 5 -41 5 -1 2 33 311 35 314
1 2 75 -9 78 -11z m273 -35 c38 -20 80 -73 80 -101 0 -17 -26 -30 -61 -30 -10
0 -20 11 -23 25 -4 16 -20 32 -41 42 -28 14 -38 14 -65 3 -32 -13 -60 -54 -60
-89 0 -11 12 -33 26 -50 34 -40 83 -43 120 -6 21 21 32 24 60 19 19 -3 34 -10
34 -16 0 -28 -35 -68 -75 -88 -120 -58 -255 33 -242 163 11 118 140 185 247
128z m311 -40 c3 -3 23 -69 43 -146 21 -77 40 -148 42 -157 4 -14 -1 -18 -18
-18 -41 0 -68 12 -68 29 0 30 -15 39 -77 46 -61 7 -63 7 -75 -19 -11 -25 -15
-27 -52 -20 -23 3 -42 7 -44 9 -3 2 117 213 155 273 12 19 19 22 51 16 20 -3
40 -9 43 -13z m-7486 -58 c-28 -70 -16 -140 25 -155 30 -10 41 -28 18 -28 -7
0 -35 13 -62 28 -99 54 -112 117 -33 152 52 24 61 25 52 3z m1210 -12 c21 -12
31 -26 33 -48 3 -25 -4 -37 -39 -66 -43 -38 -105 -65 -117 -52 -4 4 -1 10 7
13 11 4 11 6 0 13 -12 8 -11 11 1 19 8 5 24 10 35 10 20 -1 20 -1 1 -15 -11
-8 -15 -15 -10 -15 32 0 46 86 24 145 -9 24 -8 26 12 20 13 -4 37 -15 53 -24z
m-970 -28 l80 -28 6 -65 c3 -36 5 -66 4 -68 -1 -1 -27 9 -58 24 -75 34 -183
64 -230 64 -44 0 -51 11 -39 65 6 30 13 41 32 45 38 9 116 -5 205 -37z m899
13 c3 -11 6 -36 6 -53 0 -31 -2 -33 -38 -33 -47 0 -162 -32 -238 -65 -31 -14
-57 -25 -58 -25 0 0 1 30 4 67 l5 68 80 28 c137 48 228 53 239 13z m-680 -63
c81 -34 143 -32 239 6 42 17 83 28 92 25 11 -5 15 -20 15 -58 l-1 -51 -52 -27
c-119 -60 -233 -60 -358 -1 l-59 28 0 52 c0 72 10 74 124 26z m-414 -43 c8 -5
12 -11 9 -14 -7 -8 -49 5 -49 15 0 12 21 11 40 -1z m1241 -18 c-11 -20 -69
-75 -111 -105 -14 -9 -1 -6 28 9 30 14 56 23 59 20 6 -6 -72 -63 -98 -71 -11
-4 -17 -10 -14 -14 5 -9 -91 -55 -137 -66 -16 -4 -26 -11 -23 -15 6 -9 -76
-45 -122 -53 -25 -5 -33 -3 -33 8 0 8 15 17 36 21 21 4 32 10 27 15 -12 12
-75 0 -67 -12 3 -5 1 -9 -5 -9 -6 0 -8 -6 -5 -13 3 -10 -7 -14 -37 -15 -52 -2
-65 -12 -18 -13 19 0 43 -4 54 -8 15 -6 7 -10 -35 -16 -30 -4 -48 -10 -40 -13
8 -2 30 -11 48 -18 32 -13 32 -14 15 -32 -18 -18 -19 -18 -53 8 -19 15 -46 33
-59 40 -24 12 -24 13 -6 26 17 13 14 19 -8 15 -10 -2 -46 40 -47 54 0 12 24
28 91 62 52 25 63 28 54 12 -4 -6 15 1 41 14 84 42 155 61 175 49 15 -10 17
-9 12 5 -5 12 -2 15 10 10 9 -3 17 -2 17 3 0 9 75 51 128 71 26 10 26 9 -8
-27 l-35 -37 60 39 c33 21 71 46 84 56 30 23 34 23 22 0z m-1123 -161 c56 -28
102 -50 102 -48 0 2 -37 27 -82 54 -46 28 -94 61 -108 73 l-25 22 30 -20 c43
-28 265 -145 265 -139 0 3 -27 24 -59 48 -33 24 -58 45 -57 47 2 1 27 -11 55
-27 28 -17 66 -38 84 -47 l32 -17 -20 24 -20 23 25 -17 c117 -82 135 -91 184
-91 41 -1 50 -5 57 -23 5 -13 6 -23 4 -23 -3 0 9 -22 25 -49 17 -26 31 -63 31
-82 2 -29 3 -30 6 -7 3 20 12 28 34 33 36 8 59 -8 59 -41 0 -48 -63 -58 -102
-16 -32 35 -89 142 -75 142 22 0 -2 11 -33 15 -18 2 -30 1 -26 -2 7 -7 -60
-130 -87 -160 -20 -23 -50 -29 -81 -17 -19 7 -21 57 -3 72 16 13 67 3 74 -14
8 -21 -17 -48 -31 -34 -8 8 -7 13 4 20 8 5 11 12 8 15 -12 12 -28 -6 -28 -31
0 -17 5 -24 20 -24 22 0 43 33 37 58 -2 9 7 36 21 59 13 24 26 56 28 71 4 26
2 29 -23 28 -15 0 -39 3 -53 7 -14 4 -7 -2 15 -13 36 -17 37 -19 10 -14 -23 4
-27 3 -15 -5 8 -6 11 -11 5 -11 -5 0 -4 -4 2 -8 9 -6 -5 -21 -45 -48 -55 -39
-58 -40 -75 -22 -17 18 -16 19 10 29 69 27 70 28 33 29 -49 1 -85 11 -70 20 7
4 -8 10 -34 14 -26 4 -44 11 -41 16 3 5 -26 19 -65 31 -80 26 -85 36 -9 20 28
-6 54 -9 56 -7 3 3 -19 17 -49 32 -57 29 -218 131 -218 138 0 3 28 -12 63 -33
67 -41 227 -124 227 -118 0 2 -42 28 -92 57 -91 51 -244 155 -255 173 -3 5 35
-18 84 -51 49 -33 135 -83 191 -111z m204 114 c0 -5 -5 -11 -11 -13 -6 -2 -11
4 -11 13 0 9 5 15 11 13 6 -2 11 -8 11 -13z m424 -12 c-10 -10 -19 5 -10 18 6
11 8 11 12 0 2 -7 1 -15 -2 -18z m5968 -635 c-4 -7 -41 -55 -82 -105 l-74 -93
-109 0 c-60 0 -109 3 -109 6 0 3 21 51 47 105 l46 99 144 0 c113 0 143 -3 137
-12z m-4851 -263 c37 -8 91 -27 120 -42 100 -54 195 -172 200 -250 2 -27 1
-28 -103 -50 -137 -29 -136 -29 -149 10 -13 39 -64 91 -104 106 -35 13 -117
14 -150 2 -40 -16 -99 -73 -118 -116 -46 -100 -7 -232 83 -288 38 -23 58 -29
106 -29 34 0 72 7 89 16 37 18 82 70 95 108 7 20 17 28 33 28 28 0 217 -38
224 -45 2 -3 -3 -30 -13 -60 -18 -57 -72 -136 -121 -177 -138 -115 -384 -131
-547 -35 -64 37 -155 138 -185 204 -38 84 -44 231 -13 322 76 225 306 349 553
296z m1888 5 c121 -23 242 -105 308 -208 47 -74 64 -149 59 -261 -3 -82 -9
-105 -35 -161 -34 -69 -113 -156 -179 -197 -137 -83 -344 -83 -486 0 -64 37
-155 138 -185 204 -38 84 -44 231 -13 322 73 217 299 345 531 301z m1892 -5
c37 -8 91 -27 120 -42 100 -54 195 -172 200 -250 2 -27 1 -28 -103 -50 -137
-29 -136 -29 -149 10 -13 39 -64 91 -104 106 -35 13 -117 14 -150 2 -40 -16
-99 -73 -118 -116 -46 -100 -7 -232 83 -288 38 -23 58 -29 106 -29 34 0 72 7
89 16 37 18 82 70 95 108 7 20 17 28 33 28 28 0 217 -38 224 -45 2 -3 -3 -30
-13 -60 -18 -57 -72 -136 -121 -177 -138 -115 -384 -131 -547 -35 -64 37 -155
138 -185 204 -38 84 -44 231 -13 322 76 225 306 349 553 296z m-5449 -237 c67
-125 123 -227 126 -227 3 -1 60 102 127 227 l121 227 131 3 131 3 0 -431 0
-430 -120 0 -120 0 -1 188 -1 187 -91 -187 -92 -188 -82 0 -83 0 -94 188 -95
187 0 -187 -1 -188 -120 0 -120 0 0 430 0 431 132 -3 131 -3 121 -227z m1006
-198 l0 -430 -125 0 -125 0 0 430 0 430 125 0 125 0 0 -430z m1340 270 l0
-160 155 0 155 0 0 160 0 160 125 0 125 0 0 -430 0 -430 -125 0 -125 0 0 160
0 160 -155 0 -155 0 0 -160 0 -160 -125 0 -125 0 0 430 0 430 125 0 125 0 0
-160z m2359 -264 c94 -234 171 -427 171 -430 0 -4 -60 -6 -133 -6 l-133 0 -23
65 -23 65 -167 0 -167 0 -23 -65 -23 -65 -135 0 c-104 0 -134 3 -130 13 2 6
80 200 173 430 l168 417 137 0 136 0 172 -424z m1860 0 c94 -234 171 -427 171
-430 0 -4 -60 -6 -133 -6 l-133 0 -23 65 -23 65 -167 0 -167 0 -23 -65 -23
-65 -135 0 c-104 0 -134 3 -130 13 2 6 80 200 173 430 l168 417 137 0 136 0
172 -424z m626 202 l190 -222 5 220 5 219 125 0 125 0 3 -427 2 -428 -107 0
-108 0 -190 214 -190 214 -3 -214 -2 -214 -125 0 -125 0 0 430 0 430 103 0
102 -1 190 -221z m-3681 -1453 c-6 -23 -3 -25 24 -25 41 0 78 -18 97 -47 9
-13 20 -63 25 -111 14 -127 17 -135 43 -129 12 3 50 9 84 13 53 5 64 4 69 -10
5 -13 24 -16 118 -16 l111 0 43 41 c23 23 42 50 42 60 0 55 47 97 138 124 75
23 215 4 197 -25 -12 -19 13 -43 75 -74 35 -17 65 -37 68 -44 4 -13 -49 -71
-81 -89 -18 -9 -17 -12 4 -56 22 -45 22 -48 7 -127 -9 -45 -14 -90 -11 -100 7
-26 44 -32 93 -15 56 20 154 19 214 -1 44 -15 50 -15 87 1 36 17 38 20 24 35
-19 21 -19 30 1 58 14 20 17 21 37 7 28 -19 60 -19 99 1 38 20 102 20 132 1
26 -18 66 -134 66 -193 0 -39 1 -40 30 -36 45 6 181 -16 268 -44 101 -33 137
-32 266 11 116 37 212 47 218 21 2 -10 46 8 153 61 83 41 153 78 158 82 4 4 3
50 -2 102 -12 121 2 202 49 286 34 61 36 63 75 63 61 0 82 -9 95 -41 7 -15 34
-49 61 -74 61 -57 69 -72 69 -132 0 -55 24 -128 54 -161 14 -16 22 -44 27 -90
9 -80 27 -224 34 -268 5 -28 2 -33 -25 -44 -37 -15 -44 -41 -36 -123 6 -54 4
-66 -13 -89 -25 -31 -79 -58 -118 -58 -62 0 -69 -17 -73 -189 0 -14 18 -43 49
-77 54 -59 68 -96 51 -139 -6 -16 -8 -45 -5 -65 6 -34 4 -36 -40 -59 -99 -52
-146 -138 -153 -279 l-5 -94 -44 -19 c-48 -20 -62 -42 -45 -70 9 -15 6 -33
-16 -90 -31 -82 -107 -171 -157 -183 -64 -16 -114 -73 -129 -146 -5 -23 -231
-259 -255 -268 -5 -2 -26 18 -46 43 -42 51 -65 56 -100 21 -19 -19 -23 -31
-19 -54 4 -17 1 -32 -5 -36 -16 -10 -13 -72 5 -107 10 -21 17 -70 20 -157 7
-181 8 -185 49 -205 20 -10 35 -24 35 -34 1 -32 29 -57 123 -109 l92 -50 -2
-45 c-2 -35 -8 -50 -33 -71 -44 -40 -62 -36 -94 21 -27 51 -52 67 -84 57 -12
-4 -37 10 -77 44 -56 48 -125 80 -171 80 -12 0 -50 -16 -84 -35 -34 -19 -66
-35 -70 -35 -5 0 -19 19 -32 43 -28 51 -75 77 -140 77 -25 0 -122 11 -215 25
-92 14 -184 25 -204 25 -43 0 -94 -17 -129 -41 -31 -23 -139 -49 -200 -49 -25
0 -63 9 -85 19 -66 30 -153 101 -180 147 -14 24 -28 44 -31 44 -3 0 -37 -14
-77 -30 -71 -31 -71 -31 -87 -11 l-15 21 -90 -25 c-69 -19 -95 -31 -112 -52
-56 -69 -63 -130 -19 -165 l21 -17 -28 -25 c-31 -29 -33 -54 -11 -119 11 -32
14 -61 9 -90 -3 -23 -7 -58 -8 -78 -1 -25 -5 -35 -13 -32 -7 2 -38 -13 -70
-34 -119 -80 -124 -82 -237 -92 -129 -13 -154 -18 -161 -38 -12 -30 -56 -232
-56 -255 0 -47 31 -115 72 -156 l41 -42 -47 -20 c-26 -11 -55 -20 -64 -20 -8
0 -61 23 -117 50 -115 57 -224 88 -465 131 -91 16 -178 34 -195 39 -16 6 -75
23 -130 39 -134 39 -224 72 -385 144 -139 61 -276 111 -530 191 -175 56 -390
131 -447 157 -52 24 -98 78 -124 149 -29 79 -91 179 -141 227 -24 24 -73 57
-109 76 -56 28 -65 36 -58 52 14 36 9 85 -11 125 -28 55 -25 88 15 152 26 42
47 62 81 78 53 26 68 56 59 118 -7 49 5 72 39 72 53 1 109 41 210 153 39 42
64 46 116 18 34 -18 36 -18 95 4 171 64 215 76 236 64 11 -6 32 -35 45 -64 41
-94 85 -99 176 -22 47 39 67 64 77 95 9 28 22 47 41 57 34 18 40 32 40 101 0
51 1 54 25 54 19 0 25 5 25 21 0 39 18 58 65 65 25 3 66 20 91 36 38 26 49 29
69 20 21 -10 30 -6 78 34 30 25 68 49 84 53 35 10 88 -6 128 -37 15 -12 33
-22 39 -22 6 0 48 76 94 168 60 122 87 188 98 244 15 76 15 78 -7 118 -12 22
-26 40 -30 40 -4 0 -36 -16 -70 -37 l-62 -36 -22 26 c-19 24 -24 26 -55 17
-19 -6 -36 -10 -38 -10 -2 0 0 38 4 83 8 97 -1 122 -52 143 -18 8 -40 26 -47
42 -16 30 -47 203 -47 257 l0 33 65 7 c36 4 65 8 65 9 0 2 -9 51 -19 111 -26
142 -40 158 -154 175 -45 6 -112 19 -148 28 -62 15 -69 15 -113 -2 -39 -15
-49 -16 -63 -4 -30 24 -43 72 -32 112 9 34 0 115 -18 163 -4 10 15 13 80 13
112 0 119 3 111 48 -6 33 -6 35 17 29 13 -4 41 -7 62 -7 32 0 44 -7 82 -47 46
-50 45 -50 60 3 2 6 53 24 114 39 98 24 111 30 111 49 0 36 12 66 26 66 14 0
100 55 109 71 4 5 23 9 44 9 38 0 126 45 172 90 34 31 62 40 128 40 32 0 80 7
107 15 27 8 83 15 124 15 52 0 99 8 153 25 52 17 113 27 180 31 56 3 104 7
106 10 2 2 10 4 18 4 9 0 11 -8 7 -25z"/>
<path d="M2180 11935 c-11 -13 -10 -14 4 -9 9 3 16 10 16 15 0 13 -6 11 -20
-6z"/>
<path d="M1150 11935 c0 -5 5 -17 10 -25 5 -8 10 -10 10 -5 0 6 -5 17 -10 25
-5 8 -10 11 -10 5z"/>
<path d="M4746 11586 c-3 -13 -9 -31 -12 -40 -5 -13 1 -16 29 -16 l35 0 -15
40 c-18 46 -28 50 -37 16z"/>
<path d="M5050 11614 l0 -35 52 3 c43 2 54 7 56 22 6 27 -24 46 -70 46 -37 0
-38 -1 -38 -36z"/>
<path d="M5560 11573 c-8 -21 -16 -41 -18 -45 -2 -5 13 -8 33 -8 33 0 36 2 29
23 -3 12 -12 32 -18 45 -12 22 -12 22 -26 -15z"/>
<path d="M5860 11545 l0 -85 45 0 c35 0 52 6 70 25 57 56 10 145 -76 145 l-39
0 0 -85z"/>
<path d="M3790 11595 l0 -35 50 0 c38 0 52 4 60 19 15 30 -12 51 -66 51 -44 0
-44 0 -44 -35z"/>
<path d="M6254 11610 c-30 -12 -54 -49 -54 -83 0 -42 49 -87 93 -87 43 0 87
46 87 90 0 58 -72 103 -126 80z"/>
<path d="M1776 11604 c-10 -25 -7 -34 9 -28 17 7 20 30 6 38 -5 3 -12 -1 -15
-10z"/>
<path d="M1956 11605 c-9 -25 -7 -32 9 -32 17 0 19 15 6 35 -7 11 -10 10 -15
-3z"/>
<path d="M2135 11600 c-9 -28 -3 -33 19 -17 16 12 16 15 3 26 -13 10 -16 8
-22 -9z"/>
<path d="M1419 11608 c-6 -28 -4 -34 11 -34 19 0 21 27 2 34 -7 2 -12 2 -13 0z"/>
<path d="M1599 11608 c-6 -28 -4 -34 11 -34 19 0 21 27 2 34 -7 2 -12 2 -13 0z"/>
<path d="M1480 11106 l0 -434 33 -11 c17 -5 72 -15 121 -21 49 -6 103 -17 120
-24 25 -10 37 -10 61 0 17 7 81 19 143 28 62 9 117 18 123 21 5 4 9 181 9 441
l0 434 -305 0 -305 0 0 -434z m600 5 c0 -360 -2 -420 -15 -431 -8 -7 -62 -19
-119 -26 -57 -7 -116 -18 -131 -24 -20 -8 -38 -7 -61 0 -19 7 -79 17 -134 25
-55 7 -107 18 -115 25 -13 11 -15 71 -15 431 l0 419 295 0 295 0 0 -419z"/>
<path d="M1510 11446 c0 -62 1 -65 23 -61 12 3 27 11 32 18 6 7 18 16 28 20 9
3 17 13 17 22 0 8 5 15 11 15 6 0 9 -6 6 -14 -3 -8 1 -20 8 -26 12 -10 17 -7
27 15 14 31 96 79 84 50 -5 -15 -4 -16 9 -5 13 11 14 10 8 -6 -14 -39 -31 -65
-49 -78 -15 -12 -16 -16 -5 -30 7 -9 18 -13 23 -10 13 8 37 -26 38 -54 0 -25
-24 -26 -26 -1 -2 30 -5 31 -26 4 -15 -19 -18 -30 -10 -33 8 -2 9 -9 2 -23 -6
-10 -9 -19 -7 -19 3 0 21 -7 41 -15 l36 -15 0 155 0 155 -135 0 -135 0 0 -64z"/>
<path d="M1790 11295 l0 -215 140 0 140 0 0 215 0 215 -140 0 -140 0 0 -215z
m201 170 c5 4 9 0 9 -7 0 -9 3 -9 10 2 8 12 10 12 10 -5 0 -17 2 -18 11 -5 9
12 10 11 4 -5 -4 -11 -8 -24 -9 -30 -6 -36 -73 -50 -102 -21 -19 20 -2 29 53
28 23 0 43 4 43 9 0 5 -3 8 -7 8 -31 -5 -43 3 -42 29 1 17 3 20 6 9 2 -9 9
-15 14 -12z m-51 -23 c0 -15 -2 -15 -10 -2 -13 20 -13 33 0 25 6 -3 10 -14 10
-23z m17 -4 c-3 -7 -5 -2 -5 12 0 14 2 19 5 13 2 -7 2 -19 0 -25z m-37 1 c0
-6 -4 -7 -10 -4 -5 3 -10 11 -10 16 0 6 5 7 10 4 6 -3 10 -11 10 -16z m-20
-100 c0 -5 5 -7 10 -4 6 3 10 1 10 -5 0 -6 5 -8 10 -5 6 3 10 1 10 -5 0 -6 5
-8 10 -5 6 3 10 2 10 -4 0 -5 -4 -13 -10 -16 -5 -3 -10 -2 -10 2 0 5 -22 9
-50 9 -27 0 -50 -4 -50 -9 0 -4 -4 -5 -10 -2 -5 3 -10 11 -10 16 0 6 5 7 10 4
6 -3 10 -1 10 5 0 6 5 8 10 5 6 -3 10 -1 10 5 0 6 5 8 10 5 6 -3 10 -1 10 4 0
6 5 11 10 11 6 0 10 -5 10 -11z m9 -61 c1 18 36 10 36 -8 0 -19 -106 -22 -112
-3 -6 17 27 29 37 14 5 -9 9 -8 15 6 7 17 8 17 15 -2 5 -11 9 -14 9 -7z m82
-77 c7 11 9 9 9 -6 0 -17 2 -18 11 -5 8 12 9 11 7 -5 -2 -12 -10 -19 -21 -17
-9 2 -17 -2 -17 -8 0 -19 39 -10 45 10 3 11 10 20 15 20 10 0 -6 -44 -23 -67
-13 -18 -75 -16 -93 2 -12 12 -13 16 -2 19 7 2 21 7 31 10 11 3 17 16 18 38 1
20 3 25 6 14 4 -15 7 -16 14 -5z m-51 -27 c0 -20 -32 -14 -38 6 -5 13 -3 13
12 1 14 -12 16 -12 10 4 -5 13 -4 16 4 11 7 -4 12 -14 12 -22z m17 -6 c-3 -7
-5 -2 -5 12 0 14 2 19 5 13 2 -7 2 -19 0 -25z"/>
<path d="M1948 11403 c7 -3 16 -2 19 1 4 3 -2 6 -13 5 -11 0 -14 -3 -6 -6z"/>
<path d="M1543 11367 l-33 -11 0 -117 c0 -126 10 -149 47 -106 16 19 16 20 1
8 -17 -13 -18 -8 -18 67 0 67 4 87 26 126 14 25 22 45 17 45 -4 -1 -23 -7 -40
-12z"/>
<path d="M1660 11240 c0 -5 5 -10 10 -10 6 0 10 5 10 10 0 6 -4 10 -10 10 -5
0 -10 -4 -10 -10z"/>
<path d="M1588 11183 c10 -4 10 -8 0 -21 -9 -12 -6 -11 10 2 12 11 22 20 22
20 0 1 -10 2 -22 3 -13 0 -17 -1 -10 -4z"/>
<path d="M1510 10940 c0 -91 3 -118 13 -115 7 3 12 24 12 53 0 26 4 77 8 115
8 64 8 67 -12 67 -20 0 -21 -5 -21 -120z"/>
<path d="M1574 11037 c-7 -16 -8 -51 -2 -106 8 -74 7 -85 -9 -97 -17 -13 -17
-13 0 -14 25 0 49 24 36 37 -7 7 -6 39 1 94 5 46 10 89 10 96 0 22 -24 14 -36
-10z"/>
<path d="M1635 11033 c-13 -47 -5 -95 18 -114 22 -17 22 -17 29 39 4 31 8 66
10 77 2 15 -3 21 -23 23 -22 3 -28 -2 -34 -25z"/>
<path d="M1714 11024 c-10 -55 1 -133 21 -147 14 -11 16 -25 13 -75 -2 -43 1
-62 9 -62 7 0 13 -20 16 -52 2 -29 4 43 5 160 l2 212 -30 0 c-25 0 -30 -4 -36
-36z"/>
<path d="M1790 10954 c0 -91 2 -105 14 -95 10 8 50 11 125 9 61 -2 111 0 111
5 0 4 -54 7 -120 7 -66 0 -120 2 -120 5 0 4 7 19 15 35 15 29 17 30 96 30 l81
0 -4 38 -3 37 43 3 c28 2 42 8 42 18 0 11 -25 14 -140 14 l-140 0 0 -106z"/>
<path d="M2012 10968 c-15 -18 8 -60 26 -49 16 9 12 53 -4 58 -6 2 -16 -2 -22
-9z"/>
<path d="M1628 10903 c7 -3 16 -2 19 1 4 3 -2 6 -13 5 -11 0 -14 -3 -6 -6z"/>
<path d="M1628 10833 c7 -3 16 -2 19 1 4 3 -2 6 -13 5 -11 0 -14 -3 -6 -6z"/>
<path d="M1867 10823 c-4 -3 -7 -15 -7 -26 0 -13 5 -17 16 -13 9 3 18 6 20 6
2 0 4 9 4 20 0 19 -20 27 -33 13z"/>
<path d="M1915 10820 c-8 -14 3 -30 21 -30 8 0 14 9 14 20 0 21 -24 28 -35 10z"/>
<path d="M1970 10811 c0 -10 7 -21 15 -25 11 -4 15 1 15 19 0 16 -6 25 -15 25
-8 0 -15 -9 -15 -19z"/>
<path d="M1591 10782 c-12 -23 -4 -59 15 -66 17 -6 44 20 44 43 0 38 -42 54
-59 23z m44 -22 c0 -15 -6 -26 -16 -28 -19 -3 -31 21 -22 43 9 25 38 13 38
-15z"/>
<path d="M1872 10767 c-6 -6 -13 -24 -17 -40 -7 -26 -6 -27 34 -27 l41 0 0 40
c0 35 -3 40 -24 40 -13 0 -28 -6 -34 -13z"/>
<path d="M1940 10740 l0 -40 40 0 c46 0 45 -1 26 45 -12 27 -21 35 -40 35 -24
0 -26 -4 -26 -40z"/>
<path d="M1660 10739 c0 -5 5 -7 10 -4 6 3 10 8 10 11 0 2 -4 4 -10 4 -5 0
-10 -5 -10 -11z"/>
<path d="M1873 10683 c9 -2 25 -2 35 0 9 3 1 5 -18 5 -19 0 -27 -2 -17 -5z"/>
<path d="M1963 10683 c9 -2 23 -2 30 0 6 3 -1 5 -18 5 -16 0 -22 -2 -12 -5z"/>
<path d="M2135 11350 c-9 -28 -3 -33 19 -17 16 12 16 15 3 26 -13 10 -16 8
-22 -9z"/>
<path d="M1419 11358 c-6 -28 -4 -34 11 -34 19 0 21 27 2 34 -7 2 -12 2 -13 0z"/>
<path d="M2135 11110 c-9 -28 -3 -33 19 -17 16 12 16 15 3 26 -13 10 -16 8
-22 -9z"/>
<path d="M1419 11118 c-6 -28 -4 -34 11 -34 19 0 21 27 2 34 -7 2 -12 2 -13 0z"/>
<path d="M2134 10883 c-7 -2 -10 -12 -7 -23 5 -20 28 -17 37 5 5 14 -12 25
-30 18z"/>
<path d="M1413 10862 c0 -10 8 -18 17 -18 9 0 17 8 17 18 1 11 -5 18 -17 18
-12 0 -18 -7 -17 -18z"/>
<path d="M1444 10636 c-13 -14 -7 -36 11 -36 18 0 25 23 11 36 -8 8 -15 8 -22
0z"/>
<path d="M2107 10634 c-9 -9 4 -34 18 -34 19 0 26 27 9 34 -19 7 -19 7 -27 0z"/>
<path d="M1603 10595 c-12 -13 -5 -29 14 -32 16 -3 23 20 9 33 -9 8 -15 7 -23
-1z"/>
<path d="M1949 10598 c-7 -32 -5 -38 11 -38 20 0 21 31 2 38 -7 2 -12 2 -13 0z"/>
<path d="M1775 10540 c-9 -28 -3 -33 19 -17 16 12 16 15 3 26 -13 10 -16 8
-22 -9z"/>
<path d="M9112 11340 c-28 -12 -55 -71 -46 -105 9 -35 50 -65 91 -65 80 0 114
102 52 154 -32 27 -58 31 -97 16z"/>
<path d="M3454 11154 c3 -9 6 -47 6 -85 l0 -69 39 0 c56 0 95 35 95 85 0 53
-38 85 -101 85 -37 0 -44 -3 -39 -16z"/>
<path d="M6297 11096 c-18 -39 -15 -46 26 -46 23 0 28 4 23 16 -3 9 -9 27 -12
40 -8 33 -17 30 -37 -10z"/>
<path d="M7622 11011 c-12 -21 -22 -41 -22 -45 0 -3 16 -6 35 -6 19 0 35 1 35
3 0 1 -6 21 -13 45 l-13 43 -22 -40z"/>
<path d="M8203 10951 c-25 -43 -22 -51 19 -51 26 0 28 2 22 28 -15 62 -18 63
-41 23z"/>
<path d="M5310 10725 l0 -35 50 0 c38 0 52 4 60 19 15 30 -12 51 -66 51 -44 0
-44 0 -44 -35z"/>
<path d="M5760 10665 l0 -85 41 0 c54 0 75 13 89 55 21 62 -23 115 -97 115
l-33 0 0 -85z"/>
<path d="M6137 10672 c-22 -54 -22 -52 13 -52 33 0 35 7 16 59 l-12 35 -17
-42z"/>
<path d="M6430 10635 l0 -85 39 0 c56 0 91 31 91 81 0 55 -34 89 -90 89 l-40
0 0 -85z"/>
<path d="M3280 10643 c0 -43 4 -83 8 -89 4 -6 23 -9 45 -6 51 6 91 53 83 96
-9 45 -49 76 -97 76 l-39 0 0 -77z"/>
<path d="M6882 10658 c3 -42 4 -43 41 -46 42 -4 67 11 67 38 0 25 -18 36 -68
44 l-43 6 3 -42z"/>
<path d="M7526 10628 c-9 -35 -8 -35 28 -42 42 -8 66 1 66 25 0 38 -84 53 -94
17z"/>
<path d="M7516 10505 c-9 -34 -7 -36 44 -38 31 -1 45 3 53 15 16 24 0 38 -50
45 -37 5 -41 3 -47 -22z"/>
<path d="M8621 10450 c-22 -39 -22 -40 -2 -40 10 0 27 -3 36 -7 15 -5 16 -1
10 28 -13 59 -19 62 -44 19z"/>
<path d="M1251 10485 c0 -11 4 -27 9 -35 9 -13 10 -13 9 0 0 8 -4 24 -9 35
l-9 20 0 -20z"/>
<path d="M1275 10483 c3 -8 5 -17 5 -19 0 -2 4 -4 8 -4 4 0 8 8 8 18 0 10 -6
19 -14 19 -7 0 -10 -7 -7 -14z"/>
<path d="M1310 10475 c0 -8 4 -15 10 -15 5 0 7 7 4 15 -4 8 -8 15 -10 15 -2 0
-4 -7 -4 -15z"/>
<path d="M1335 10461 c0 -16 4 -33 9 -38 5 -4 6 -3 3 4 -4 6 -3 23 3 37 7 19
6 26 -3 26 -7 0 -12 -13 -12 -29z"/>
<path d="M1380 10451 c0 -5 5 -13 10 -16 6 -3 10 -2 10 4 0 5 -4 13 -10 16 -5
3 -10 2 -10 -4z"/>
<path d="M1421 10444 c0 -11 3 -14 6 -6 3 7 2 16 -1 19 -3 4 -6 -2 -5 -13z"/>
<path d="M1443 10431 c-8 -12 -8 -22 -1 -32 8 -11 9 -11 4 3 -3 10 -1 20 4 23
6 4 10 1 10 -6 0 -7 3 -10 6 -6 3 3 2 12 -3 21 -7 14 -10 13 -20 -3z"/>
<path d="M1477 10431 c3 -12 9 -21 14 -21 14 0 11 16 -5 29 -12 10 -13 8 -9
-8z"/>
<path d="M2230 10480 c0 -6 4 -9 9 -6 5 4 12 1 14 -4 3 -6 4 -5 3 2 -3 15 -26
23 -26 8z"/>
<path d="M2224 10443 c2 -10 6 -17 10 -16 15 3 16 11 2 22 -12 10 -14 9 -12
-6z"/>
<path d="M2297 10449 c-9 -5 -23 -7 -30 -3 -7 4 -8 3 -4 -2 5 -5 23 -9 42 -9
25 0 31 3 23 13 -6 6 -11 12 -12 12 0 0 -9 -5 -19 -11z"/>
<path d="M2180 10425 c-7 -8 -9 -15 -6 -15 4 0 14 7 22 15 9 8 11 15 6 15 -5
0 -15 -7 -22 -15z"/>
<path d="M2060 10419 c0 -5 5 -7 10 -4 6 3 10 8 10 11 0 2 -4 4 -10 4 -5 0
-10 -5 -10 -11z"/>
<path d="M2086 10395 c-3 -8 -1 -15 4 -15 13 0 22 18 11 24 -5 3 -11 -1 -15
-9z"/>
<path d="M1600 10395 c0 -19 4 -23 17 -18 12 5 13 8 4 11 -10 3 -10 6 -1 12 8
5 7 9 -4 13 -12 5 -16 0 -16 -18z"/>
<path d="M1953 10408 c-14 -19 -14 -58 0 -58 7 0 12 15 12 35 0 40 1 39 -12
23z"/>
<path d="M1664 10379 c0 -10 4 -19 8 -19 4 0 8 6 8 14 0 8 -4 17 -8 20 -4 2
-8 -4 -8 -15z"/>
<path d="M1910 10370 c-2 -31 -3 -32 -9 -10 -3 14 -13 26 -21 28 -12 3 -13 1
-2 -9 6 -7 12 -21 12 -31 0 -21 18 -24 26 -4 3 8 4 25 1 38 -3 17 -5 14 -7
-12z"/>
<path d="M1984 10381 c0 -11 4 -17 8 -15 4 3 8 12 8 20 0 8 -4 14 -8 14 -4 0
-8 -9 -8 -19z"/>
<path d="M1700 10337 c0 -8 7 -14 15 -14 11 0 12 4 4 14 -6 7 -13 13 -15 13
-2 0 -4 -6 -4 -13z"/>
<path d="M1827 10328 c-4 -15 -3 -17 8 -8 8 7 19 9 25 5 5 -3 10 -2 10 3 0 5
-9 12 -19 15 -13 3 -21 -1 -24 -15z"/>
<path d="M1788 10313 c7 -3 16 -2 19 1 4 3 -2 6 -13 5 -11 0 -14 -3 -6 -6z"/>
<path d="M2298 10267 c-15 -6 -29 -16 -32 -23 -3 -7 9 -4 30 8 19 11 34 22 34
24 0 2 -1 4 -2 3 -2 -1 -15 -6 -30 -12z"/>
<path d="M2174 10235 c-18 -14 -18 -14 4 -8 12 3 22 9 22 14 0 12 -3 11 -26
-6z"/>
<path d="M2239 10228 c0 -2 -2 -12 -4 -22 -2 -10 -10 -23 -17 -28 -9 -7 -8 -8
5 -4 11 3 31 9 45 13 l27 7 -25 6 c-14 4 -24 12 -22 18 2 10 -6 18 -9 10z"/>
<path d="M2295 10221 c-3 -5 -2 -12 3 -15 5 -3 9 1 9 9 0 17 -3 19 -12 6z"/>
<path d="M2090 10195 c-16 -9 -19 -14 -9 -15 8 0 24 7 35 15 24 18 7 19 -26 0z"/>
<path d="M2190 10195 c-14 -8 -20 -14 -14 -15 5 0 19 7 30 15 24 18 16 19 -16
0z"/>
<path d="M2050 10154 l-25 -15 25 7 c14 3 32 10 40 15 13 7 13 8 0 8 -8 0 -26
-6 -40 -15z"/>
<path d="M1905 10129 c-22 -10 -33 -18 -25 -18 8 0 31 8 50 19 45 25 27 24
-25 -1z"/>
<path d="M2000 10110 c6 -11 13 -20 16 -20 2 0 0 9 -6 20 -6 11 -13 20 -16 20
-2 0 0 -9 6 -20z"/>
<path d="M2148 10123 c6 -2 18 -2 25 0 6 3 1 5 -13 5 -14 0 -19 -2 -12 -5z"/>
<path d="M1913 10102 c-13 -2 -23 -8 -23 -13 0 -9 37 -3 49 7 8 7 -4 10 -26 6z"/>
<path d="M1518 10083 c7 -3 16 -2 19 1 4 3 -2 6 -13 5 -11 0 -14 -3 -6 -6z"/>
<path d="M1608 10053 c7 -3 16 -2 19 1 4 3 -2 6 -13 5 -11 0 -14 -3 -6 -6z"/>
<path d="M1935 9917 c20 -15 20 -16 -5 -25 -22 -9 -23 -11 -7 -17 10 -4 23 -3
29 3 15 15 5 46 -17 50 -20 4 -20 4 0 -11z"/>
<path d="M4835 9186 c-40 -18 -90 -72 -109 -118 -22 -52 -20 -134 5 -188 26
-57 44 -77 93 -102 75 -38 195 -20 248 39 33 36 58 107 58 163 0 90 -52 175
-127 206 -41 18 -129 17 -168 0z"/>
<path d="M5846 9120 c-3 -8 -23 -62 -44 -120 l-39 -105 85 -3 c46 -2 86 -1 88
1 2 2 -16 57 -40 123 -25 68 -47 113 -50 104z"/>
<path d="M7706 9120 c-3 -8 -23 -62 -44 -120 l-39 -105 85 -3 c46 -2 86 -1 88
1 2 2 -16 57 -40 123 -25 68 -47 113 -50 104z"/>
</g>
</svg>
